# xmcd CD database file
#
# Track frame offsets:
#	150
#	19081
#	37401
#	71084
#	94642
#	112061
#	126191
#	165616
#	185821
#
# Disc length: 2682 seconds
#
# Revision: 0
# Processed by: cddbd v1.5.2PL0 Copyright (c) Steve Scherf et al.
# Submitted via: CDex 1.70beta2
#
DISCID=830a7809
DTITLE=Aeham Ahmad and Edgar Knecht - Keys to Friendship
DYEAR=2017
DGENRE=Jazz
TTITLE0=Green Peppermint
TTITLE1=To Those in the Waves
TTITLE2=Fog en Nachel
TTITLE3=Tiefe Wasser
TTITLE4=Yarmouk Misses You
TTITLE5=Song With No Name
TTITLE6=Gedankenfreiheit
TTITLE7=Abu the Waterman
TTITLE8=Nami
EXTD=YEAR: 2017
EXTT0=
EXTT1=
EXTT2=
EXTT3=
EXTT4=
EXTT5=
EXTT6=
EXTT7=
EXTT8=
PLAYORDER=
